<?xml version="1.0" encoding="utf-8"?>
<!-- Generator: Adobe Illustrator 18.1.1, SVG Export Plug-In . SVG Version: 6.00 Build 0)  -->
<svg version="1.1" id="Layer_1" xmlns="http://www.w3.org/2000/svg" xmlns:xlink="http://www.w3.org/1999/xlink" x="0px" y="0px"
	 viewBox="0 0 581.1 612" enable-background="new 0 0 581.1 612" xml:space="preserve">
<path fill="#F56741" d="M556.3,481.4c-0.8,0-1.6-0.1-2.4-0.3c-6.9-1.4-11.4-8-10.1-14.9c14.4-74.3,12.2-135.8,10.8-172.6l-0.3-8.3
	c0-143.5-118.6-259.8-264.4-259.8c-80.6,0-158.9,39-209.6,104.2c-4.3,5.6-12.3,6.6-17.9,2.2c-5.6-4.3-6.6-12.3-2.2-17.9
	C115.6,42.7,201.5,0,289.9,0c159.9,0,289.9,127.8,289.9,284.9l0.3,7.4c1.4,38.3,3.7,101.6-11.2,178.8
	C567.6,477.1,562.3,481.4,556.3,481.4L556.3,481.4z"/>
<path fill="#F56741" d="M12.8,345c-7,0-12.8-5.7-12.8-12.8v-45.7c0-45.2,11.4-93.3,31.4-131.8c3.2-6.2,10.9-8.7,17.2-5.4
	c6.2,3.2,8.7,11,5.5,17.2c-18.1,35-28.6,78.8-28.6,120.1v45.7C25.5,339.3,19.8,345,12.8,345z"/>
<path fill="#F56741" d="M24.6,394.4c-7,0-12.8-5.7-12.8-12.8c0-7,5.7-12.8,12.8-12.8c15.1,0,26.4-12.1,26.4-28.2v-54.2
	C51,160.9,159.5,54.6,288,54.6c32,0,65.1,6.4,93.3,18.1c6.5,2.7,9.6,10.1,6.9,16.7S378,99,371.5,96.3
	c-25.1-10.4-54.7-16.1-83.5-16.1c-114.6,0-211.5,94.6-211.5,206.4v54.2C76.5,370.8,53.7,394.4,24.6,394.4L24.6,394.4z"/>
<path fill="#F56741" d="M478.1,558.3c-1.5,0-3-0.3-4.4-0.8c-6.6-2.4-10-9.8-7.5-16.4c38.9-104.9,35.5-199.7,33.8-245.4l-0.1-3.2
	c-0.2-2.9-0.3-5.5-0.3-7.6c0-62.7-28.9-121.1-79.3-160.3c-5.6-4.3-6.6-12.3-2.2-17.9c4.3-5.6,12.3-6.6,17.9-2.2
	c56.7,44.1,89.2,109.8,89.2,180.4c0,1.9,0.1,4.1,0.2,6.6l0.1,2.7c1.7,47.9,5.3,146.2-35.3,255.8
	C488.1,555.1,483.3,558.3,478.1,558.3L478.1,558.3z"/>
<path fill="#F56741" d="M403.9,590.3c-1.9,0-3.9-0.5-5.8-1.4c-6.2-3.2-8.8-10.9-5.6-17.1c58.4-115,54.4-222.6,52.6-274.3
	c-0.3-6.2-0.4-9.7-0.4-12.6c0-82.8-69.5-150.2-154.8-150.2c-23.6,0-46.4,5.4-67.9,16c-6.3,3.1-13.9,0.5-17.1-5.8
	c-3.1-6.3-0.5-13.9,5.8-17.1c25-12.4,51.6-18.6,79.2-18.6c99.4,0,180.3,78.8,180.3,175.7c0,2.7,0.1,5.8,0.3,9.4
	c1.9,51.9,6.1,168.2-55.2,289C413,587.7,408.5,590.3,403.9,590.3L403.9,590.3z"/>
<path fill="#F56741" d="M122.3,299.3c-7,0-12.8-5.7-12.8-12.8c0-49.4,22-97.2,60.4-131.2c5.2-4.7,13.3-4.2,18,1.1s4.2,13.3-1.1,18
	c-32.9,29.2-51.8,70.1-51.8,112.2C135,293.6,129.3,299.3,122.3,299.3z"/>
<path fill="#F56741" d="M26.4,451.3c-5.5,0-10.6-3.6-12.2-9.1c-2-6.8,1.9-13.8,8.7-15.8l24-7c48.6-14.2,62.7-31.8,62.7-78.6
	c0-7,5.7-12.8,12.8-12.8s12.8,5.8,12.8,12.8c0,57.9-22,85.9-81,103.1l-24,7C28.8,451.1,27.6,451.3,26.4,451.3z"/>
<path fill="#F56741" d="M327.5,612c-2.4,0-4.9-0.7-7.1-2.1c-5.8-3.9-7.4-11.9-3.5-17.7c50.5-75.1,74.8-160.9,74.2-262
	c0-7,5.7-12.8,12.7-12.8c5.9-0.5,12.8,5.6,12.8,12.7c0.6,105-25.8,198-78.5,276.4C335.7,610.1,331.6,612,327.5,612L327.5,612z"/>
<path fill="#F56741" d="M60.2,496.7c-5.5,0-10.6-3.6-12.2-9.2c-2-6.8,1.9-13.8,8.7-15.8c69.4-20.2,96.4-56.9,96.4-131v-54.2
	c0-65.4,61.3-122.8,131.2-122.8c69.2,0,125.6,54.3,125.6,121.1c0,7-5.7,12.8-12.8,12.8s-12.8-5.7-12.8-12.8
	c0-52.7-44.9-95.6-100.1-95.6c-55.3,0-105.7,46.4-105.7,97.3v54.2c0,84.4-35.4,132.3-114.8,155.5C62.6,496.6,61.4,496.7,60.2,496.7z
	"/>
<path fill="#F56741" d="M260.4,610.8c-2.8,0-5.7-0.9-8.1-2.9c-5.5-4.4-6.3-12.5-1.8-17.9c34-41.7,58.2-89.1,71.9-141
	c1.8-6.8,8.9-10.9,15.6-9.1c6.8,1.8,10.9,8.8,9.1,15.6c-14.6,55.5-40.5,106.1-76.8,150.6C267.8,609.3,264.1,610.8,260.4,610.8
	L260.4,610.8z"/>
<path fill="#F56741" d="M106.1,542.7c-5.2,0-10.1-3.2-12-8.4c-2.4-6.7,1-14,7.6-16.4c105.6-38.5,127.8-117.6,127.8-177.3v-54.2
	c0-38.2,28.8-68.2,65.6-68.2c37.6,0,68.2,29.8,68.2,66.5c0,4.6,0.4,10.5,0.8,17.5c0.9,13.9,2.1,32.9,1.3,54.8
	c-0.3,7-6.5,12.5-13.3,12.2c-7-0.3-12.5-6.2-12.2-13.3c0.8-20.6-0.3-38.1-1.2-52.2c-0.5-7.6-0.9-14.1-0.9-19.2
	c0-22.6-19.2-41-42.7-41c-22.5,0-40.1,18.7-40.1,42.7v54.2c0,67.8-25.1,157.7-144.6,201.2C109,542.4,107.5,542.7,106.1,542.7
	L106.1,542.7z"/>
<path fill="#F56741" d="M264.8,493.4c-2,0-4-0.5-5.8-1.4c-6.3-3.2-8.7-10.9-5.5-17.2c18.4-35.5,27-74.6,27-123.2v-44.8
	c0-7,5.7-12.8,12.8-12.8c7,0,12.8,5.7,12.8,12.8v44.8c0,52.8-9.5,95.7-29.8,135C273.9,490.9,269.4,493.4,264.8,493.4z"/>
<path fill="#F56741" d="M171.7,586.2c-4.3,0-8.6-2.2-11-6.2c-3.6-6.1-1.6-13.9,4.4-17.5c21.8-13,40.4-28.4,55.4-45.7
	c4.6-5.3,12.7-5.9,18-1.3c5.3,4.6,5.9,12.6,1.3,18c-16.8,19.3-37.5,36.5-61.6,50.9C176.2,585.7,174,586.2,171.7,586.2L171.7,586.2z"
	/>
</svg>
