<?xml version="1.0" encoding="utf-8"?>
<!-- Generator: Adobe Illustrator 18.1.1, SVG Export Plug-In . SVG Version: 6.00 Build 0)  -->
<svg version="1.1" id="Layer_1" xmlns="http://www.w3.org/2000/svg" xmlns:xlink="http://www.w3.org/1999/xlink" x="0px" y="0px"
	 viewBox="0 0 612 563" enable-background="new 0 0 612 563" xml:space="preserve">
<path fill="#F56741" d="M306.4,563c-3.6,0-7-1.5-9.5-4.2L41.9,276.7c-0.5-0.6-1-1.2-1.4-1.8C14.4,244.6,0,206.2,0,166.4
	C0,74.6,74.6,0,166.3,0C223.1,0,275.6,29.3,306,76.2C336.3,29.3,388.9,0,445.7,0C537.4,0,612,74.6,612,166.4
	c0,39.9-14.4,78.4-40.6,108.6c-0.4,0.6-0.8,1.1-1.3,1.7L315.8,558.8C313.5,561.5,310,563,306.4,563L306.4,563L306.4,563z
	 M62.3,261.3l244.1,269.9l243.4-270c0.4-0.5,0.7-1,1.1-1.5c23-25.9,35.6-59,35.6-93.3c0-77.7-63.2-140.9-140.8-140.9
	c-54.9,0-105.2,32.4-128,82.5c-4.1,9.1-19,9.1-23.2,0c-22.9-50.1-73.2-82.5-128.1-82.5c-77.6,0-140.8,63.2-140.8,140.9
	c0,34.3,12.6,67.4,35.6,93.3C61.6,260.2,61.9,260.7,62.3,261.3L62.3,261.3z"/>
</svg>
