<?xml version="1.0" encoding="utf-8"?>
<!-- Generator: Adobe Illustrator 18.1.1, SVG Export Plug-In . SVG Version: 6.00 Build 0)  -->
<svg version="1.1" id="Layer_1" xmlns="http://www.w3.org/2000/svg" xmlns:xlink="http://www.w3.org/1999/xlink" x="0px" y="0px"
	 viewBox="0 0 612 605.7" enable-background="new 0 0 612 605.7" xml:space="preserve">
<path fill="#F56741" d="M379.3,605.7c-11.3,0-22.3-4.1-31-11.4c-10.7-9.1-16.8-22.4-16.8-36.4V455.8c0-14.1-11.4-25.5-25.5-25.5
	c-14.1,0-25.5,11.4-25.5,25.5v101.3c0,14.3-6.2,27.7-17.1,36.9c-10.8,9.1-25.1,13.2-39.2,10.8C91.5,583.1-1.2,458.8-1.2,302.8
	c0-156.5,93-280.8,226.3-302.2c13.9-2.2,28.1,1.8,38.6,10.8c10.7,9.1,16.8,22.3,16.8,36.4v102.1c0,14.1,11.4,25.5,25.5,25.5
	c14.1,0,25.5-11.4,25.5-25.5V48.5c0-14.3,6.2-27.7,17.1-36.9c10.8-9.1,25-13.2,39.2-10.9c132.7,21.9,225.3,146.1,225.3,302.1
	c0,156.5-93,280.8-226.3,302.3C384.4,605.5,381.9,605.7,379.3,605.7L379.3,605.7z M306,404.8c28.2,0,51,22.9,51,51v102.1
	c0,6.6,2.8,12.7,7.8,17c4.9,4.2,11.6,6.1,18,5c120.6-19.5,204.8-133.4,204.8-277.1c0-143.2-83.9-257.1-204-276.9
	c-6.6-1.1-13.4,0.8-18.6,5.2c-5.2,4.4-8.1,10.7-8.1,17.5v101.3c0,28.1-22.9,51-51,51s-51-22.9-51-51v-102c0-6.5-2.9-12.8-7.9-17
	c-4.9-4.2-11.5-6.1-18-5C108.5,45.2,24.3,159.2,24.3,302.9c0,143.2,83.9,257.1,204,276.9c6.8,1.1,13.5-0.8,18.6-5.2
	c5.2-4.4,8.1-10.7,8.1-17.5V455.8C255,427.7,277.9,404.8,306,404.8L306,404.8z"/>
<path fill="#F56741" d="M165.8,199.2c-0.2,0-0.3,0-0.4,0c-7-0.3-12.5-6.1-12.3-13.2c2-59.3-9.3-103.4-31.8-124.4
	c-5.2-4.8-5.4-12.9-0.6-18c4.8-5.2,12.9-5.4,18-0.6c35.8,33.4,41.5,96.7,39.9,143.9C178.3,193.8,172.6,199.2,165.8,199.2
	L165.8,199.2z"/>
<path fill="#F56741" d="M126.1,309.4c-17.3,0-33.6-1.6-42.8-6.4c-13.3-7-10.8-26.3-6.5-61.5c1.8-14.4,4.7-37.7,3.2-45.6
	c-2.8-1-7.2-0.5-15.8,0.9c-8.9,1.4-19.9,3.2-33.9,2.4c-7-0.4-12.4-6.4-12.1-13.4c0.4-7,6.3-12.4,13.4-12c11.3,0.6,20.4-0.9,28.4-2.2
	c12.4-2,25.1-4.1,36.8,4.7c12,9,10,29.6,5.2,68.3c-1.5,12-3.6,29.4-3.2,37.2c15.1,4,56,1.9,89-2.7c7-1,13.4,3.9,14.4,10.9
	c1,7-3.9,13.4-10.8,14.4C182.9,305.5,153.3,309.4,126.1,309.4L126.1,309.4z"/>
<path fill="#F56741" d="M185.1,149.8c-7.1,0-14.9-0.2-22.3-1c-7-0.7-12.2-6.9-11.5-13.9c0.7-7,6.7-12.1,13.9-11.5
	c19.6,1.9,42.9,0,43.1,0c6.9-0.6,13.2,4.6,13.7,11.7c0.6,7-4.7,13.2-11.7,13.7C209.7,148.9,198.7,149.8,185.1,149.8L185.1,149.8z"/>
<path fill="#F56741" d="M123.4,411.3c-17.9,0-37.9-1.7-57.7-3.3c-15.7-1.3-30.8-2.6-43.2-2.8c-7-0.1-12.7-5.9-12.6-12.9
	c0.1-7.1,5.2-12.6,12.9-12.6c12.9,0.2,28.6,1.5,44.9,2.8c33.4,2.8,74.9,6.2,90.4-1.5c26.4-13.3,94.8-75.5,96.8-91.2
	c0-7,5.7-12.6,12.8-12.6s12.8,5.8,12.8,12.9c0,32.1-89.1,102.9-110.8,113.8C158.5,409.5,142.1,411.3,123.4,411.3L123.4,411.3z"/>
<path fill="#F56741" d="M98,539.5c-3.5,0-7-1.5-9.5-4.2c-4.7-5.3-4.3-13.3,1-18c31.2-28,74-61.4,100.2-61.4c7,0,12.8,5.7,12.8,12.8
	c0,7-5.7,12.8-12.8,12.8c-10.1,0-38,14.4-83.1,54.9C104.1,538.4,101,539.5,98,539.5z"/>
<path fill="#F56741" d="M89.2,392.1c-7,0-12.8-5.7-12.8-12.8v-25.5c0-7,5.7-12.8,12.8-12.8s12.8,5.7,12.8,12.8v25.5
	C102,386.3,96.3,392.1,89.2,392.1z"/>
<path fill="#F56741" d="M291.6,379.3c-24.6,0-54.2-20.9-66.5-35c-4.6-5.3-4.1-13.3,1.2-18c5.3-4.7,13.4-4.1,18,1.2
	c9.3,10.7,32.3,26.2,47.3,26.2c7,0,12.8,5.7,12.8,12.8C304.4,373.6,298.7,379.3,291.6,379.3z"/>
<path fill="#F56741" d="M482.1,566.1c-3.1,0-6.2-1.1-8.7-3.4c-35.8-33.4-41.4-96.7-39.9-143.9c0.2-7,6.1-12.4,13.2-12.3
	c7,0.3,12.5,6.1,12.3,13.2c-2,59.3,9.3,103.5,31.8,124.4c5.2,4.8,5.4,12.9,0.6,18C488.9,564.7,485.5,566.1,482.1,566.1L482.1,566.1z
	"/>
<path fill="#F56741" d="M535.7,435.8c-7,0-14-1.5-20.6-6.4c-12-9-10-29.6-5.2-68.3c1.5-12,3.7-29.4,3.2-37.2c-15.1-4-56-2-89,2.7
	c-7,1-13.4-3.9-14.4-10.9c-1-6.9,3.9-13.4,10.9-14.4c13.9-2,84.6-11.1,108.1,1.4c13.3,7,10.9,26.4,6.5,61.6
	c-1.8,14.4-4.6,37.7-3.2,45.6c2.8,1,7.3,0.5,15.8-1c8.9-1.4,20-3.2,33.9-2.4c7,0.4,12.4,6.4,12.1,13.4c-0.4,7-6.6,12.4-13.4,12.1
	c-11.2-0.6-20.4,0.9-28.4,2.2C546.6,435,541.1,435.8,535.7,435.8L535.7,435.8z"/>
<path fill="#F56741" d="M448,482.3c-0.4,0-0.8,0-1.2-0.1c-19.5-1.9-42.8,0-43,0c-7.2,0.6-13.2-4.7-13.8-11.7
	c-0.6-7,4.6-13.2,11.7-13.8c1-0.1,25.8-2.1,47.7,0c7,0.6,12.2,6.9,11.4,13.9C460.1,477.4,454.6,482.3,448,482.3L448,482.3z"/>
<path fill="#F56741" d="M344.2,328.4c-7,0-12.8-5.8-12.8-12.9c0-32.1,89.1-102.9,110.9-113.8c21.8-10.9,63.6-7.4,104-4.1
	c15.7,1.3,30.7,2.6,43,2.8c7,0.1,12.7,5.9,12.5,13c-0.1,7-5.8,12.4-12.9,12.5c-12.8-0.2-28.4-1.5-44.7-2.8
	c-33.5-2.8-75.1-6.2-90.6,1.5c-26.5,13.3-94.8,75.5-96.8,91.2C357,322.8,351.3,328.4,344.2,328.4L344.2,328.4z"/>
<path fill="#F56741" d="M422.4,149.8c-7,0-12.8-5.7-12.8-12.8c0-7,5.7-12.8,12.8-12.8c10.1,0,37.9-14.4,83.1-54.9
	c5.2-4.7,13.3-4.3,18,1c4.7,5.3,4.3,13.3-0.9,18C491.3,116.4,448.5,149.8,422.4,149.8z"/>
<path fill="#F56741" d="M522.8,264.6c-7,0-12.8-5.7-12.8-12.7v-25.5c0-7,5.7-12.8,12.8-12.8s12.8,5.7,12.8,12.8v25.5
	C535.5,258.9,529.8,264.6,522.8,264.6z"/>
<path fill="#F56741" d="M377.2,282.4c-3.6,0-7.1-1.5-9.6-4.4c-9.3-10.7-32.3-26.2-47.3-26.2c-7,0-12.8-5.7-12.8-12.8
	c0-7,5.7-12.8,12.8-12.8c24.7,0,54.2,20.9,66.5,35c4.6,5.3,4.1,13.4-1.3,18C383.1,281.4,380.2,282.4,377.2,282.4z"/>
</svg>
