<?xml version="1.0" encoding="utf-8"?>
<!-- Generator: Adobe Illustrator 18.1.1, SVG Export Plug-In . SVG Version: 6.00 Build 0)  -->
<svg version="1.1" id="Layer_1" xmlns="http://www.w3.org/2000/svg" xmlns:xlink="http://www.w3.org/1999/xlink" x="0px" y="0px"
	 viewBox="0 0 240 41.9" enable-background="new 0 0 240 41.9" xml:space="preserve">
<g>
	<g>
		<polygon fill="#FFFFFF" points="0,41.8 13,2.8 18.4,2.8 5.4,41.8 		"/>
	</g>
	<g>
		<polygon fill="#FFFFFF" points="10.8,41.8 23.8,2.8 29.2,2.8 16.2,41.8 		"/>
	</g>
	<g>
		<polygon fill="#FFFFFF" points="21.8,41.8 34.8,2.8 40.3,2.8 27.2,41.8 		"/>
	</g>
</g>
<g>
	<path fill="#FFFFFF" d="M72,21.6h15.6v1.2c0,2.8-0.3,5.3-1,7.5c-0.7,2-1.7,3.9-3.3,5.7c-3.5,3.9-7.9,5.9-13.3,5.9
		c-5.3,0-9.8-1.9-13.5-5.7c-3.8-3.8-5.6-8.4-5.6-13.8c0-5.5,1.9-10.1,5.7-13.9c3.8-3.8,8.5-5.7,13.9-5.7c2.9,0,5.7,0.6,8.2,1.8
		c2.4,1.2,4.8,3.1,7.2,5.8l-4,3.9c-3.1-4.1-6.9-6.2-11.3-6.2c-4,0-7.3,1.4-10,4.1c-2.7,2.7-4,6.1-4,10.1c0,4.2,1.5,7.6,4.5,10.4
		c2.8,2.5,5.9,3.8,9.1,3.8c2.8,0,5.3-0.9,7.5-2.8c2.2-1.9,3.5-4.2,3.7-6.8H72V21.6z"/>
	<path fill="#FFFFFF" d="M89.5,29.1c0-3.4,1.2-6.3,3.7-8.8c2.5-2.4,5.4-3.6,9-3.6c3.5,0,6.6,1.2,9,3.6c2.4,2.4,3.7,5.4,3.7,8.9
		c0,3.6-1.2,6.5-3.7,8.9c-2.5,2.4-5.5,3.6-9.1,3.6c-3.6,0-6.5-1.2-8.9-3.7C90.7,35.8,89.5,32.8,89.5,29.1z M95.1,29.2
		c0,2.4,0.6,4.3,1.9,5.6c1.3,1.4,3,2.1,5.1,2.1c2.1,0,3.9-0.7,5.1-2.1c1.3-1.4,1.9-3.2,1.9-5.5c0-2.3-0.6-4.2-1.9-5.5
		c-1.3-1.4-3-2.1-5.1-2.1c-2.1,0-3.8,0.7-5.1,2.1C95.8,25.2,95.1,27,95.1,29.2z"/>
	<path fill="#FFFFFF" d="M116.5,29.1c0-3.4,1.2-6.3,3.7-8.8c2.5-2.4,5.4-3.6,9-3.6c3.5,0,6.6,1.2,9,3.6c2.4,2.4,3.7,5.4,3.7,8.9
		c0,3.6-1.2,6.5-3.7,8.9c-2.5,2.4-5.5,3.6-9.1,3.6c-3.6,0-6.5-1.2-8.9-3.7C117.7,35.8,116.5,32.8,116.5,29.1z M122.1,29.2
		c0,2.4,0.6,4.3,1.9,5.6c1.3,1.4,3,2.1,5.1,2.1c2.1,0,3.9-0.7,5.1-2.1c1.3-1.4,1.9-3.2,1.9-5.5c0-2.3-0.6-4.2-1.9-5.5
		c-1.3-1.4-3-2.1-5.1-2.1c-2.1,0-3.8,0.7-5.1,2.1C122.8,25.2,122.1,27,122.1,29.2z"/>
	<path fill="#FFFFFF" d="M163.2,0h5.5v41.2h-5.5v-2.5c-2.2,2.1-4.6,3.2-7.3,3.2c-3.3,0-5.9-1.2-8.1-3.6c-2.1-2.4-3.2-5.4-3.2-9.1
		c0-3.5,1.1-6.5,3.2-8.9c2.1-2.4,4.8-3.6,8-3.6c2.8,0,5.3,1.1,7.5,3.4V0z M150.2,29.2c0,2.3,0.6,4.1,1.8,5.6
		c1.3,1.4,2.8,2.2,4.7,2.2c2,0,3.7-0.7,4.9-2.1c1.3-1.4,1.9-3.3,1.9-5.5c0-2.2-0.6-4.1-1.9-5.5c-1.3-1.4-2.9-2.1-4.9-2.1
		c-1.9,0-3.5,0.7-4.7,2.1C150.8,25.3,150.2,27.1,150.2,29.2z"/>
	<path fill="#FFFFFF" d="M178.1,0v20.2c2.2-2.3,4.7-3.4,7.5-3.4c3.2,0,5.9,1.2,8,3.6c2.1,2.4,3.2,5.3,3.2,8.9c0,3.7-1.1,6.7-3.2,9.1
		c-2.1,2.4-4.8,3.6-8.1,3.6c-2.7,0-5.2-1.1-7.4-3.2v2.5h-5.5V0H178.1z M191.2,29.5c0-2.3-0.6-4.1-1.9-5.6c-1.3-1.5-2.8-2.2-4.7-2.2
		c-2,0-3.7,0.7-4.9,2.1c-1.3,1.4-1.9,3.2-1.9,5.5c0,2.3,0.6,4.2,1.9,5.5c1.2,1.4,2.9,2.1,4.9,2.1c1.9,0,3.5-0.7,4.7-2.1
		C190.5,33.4,191.2,31.6,191.2,29.5z"/>
	<path fill="#FFFFFF" d="M198.7,7.6c0-1,0.3-1.8,1-2.5c0.7-0.7,1.5-1,2.5-1c1,0,1.8,0.3,2.5,1c0.7,0.7,1,1.5,1,2.5
		c0,1-0.3,1.8-1,2.5c-0.7,0.7-1.5,1-2.5,1c-1,0-1.8-0.3-2.5-1C199.1,9.4,198.7,8.6,198.7,7.6z M205.1,17.4v23.8h-5.5V17.4H205.1z"/>
	<path fill="#FFFFFF" d="M217.7,22.6v18.6h-5.5V22.6h-2.3v-5.1h2.3V8.7h5.5v8.7h4.3v5.1H217.7z"/>
	<path fill="#FFFFFF" d="M238.5,21.5l-4.5,2.4c-0.7-1.4-1.6-2.2-2.7-2.2c-0.5,0-0.9,0.2-1.3,0.5c-0.4,0.3-0.5,0.8-0.5,1.3
		c0,0.9,1.1,1.8,3.2,2.7c2.9,1.3,4.9,2.4,5.9,3.5c1,1.1,1.5,2.5,1.5,4.3c0,2.3-0.8,4.2-2.5,5.7c-1.6,1.5-3.6,2.2-5.9,2.2
		c-4,0-6.8-1.9-8.5-5.8l4.7-2.2c0.7,1.1,1.1,1.9,1.5,2.2c0.7,0.6,1.5,0.9,2.4,0.9c1.9,0,2.8-0.8,2.8-2.5c0-1-0.7-1.9-2.1-2.7
		c-0.6-0.3-1.1-0.5-1.7-0.8c-0.6-0.3-1.1-0.5-1.7-0.8c-1.6-0.8-2.7-1.6-3.4-2.3c-0.8-1-1.2-2.3-1.2-3.8c0-2.1,0.7-3.8,2.1-5.1
		c1.4-1.3,3.2-2,5.3-2C234.7,16.8,237,18.3,238.5,21.5z"/>
</g>
</svg>
