<?xml version="1.0" encoding="UTF-8" standalone="no"?>
<svg width="130px" height="30px" viewBox="0 0 130 30" version="1.1" xmlns="http://www.w3.org/2000/svg" xmlns:xlink="http://www.w3.org/1999/xlink">
    <!-- Generator: Sketch 3.7.2 (28276) - http://www.bohemiancoding.com/sketch -->
    <title>Group</title>
    <desc>Created with Sketch.</desc>
    <defs></defs>
    <g id="Page-1" stroke="none" stroke-width="1" fill="none" fill-rule="evenodd">
        <g id="Group" fill="#0098DB">
            <path d="M15,0 C6.71533333,0 0,6.716 0,15 C0,23.284 6.71533333,30 15,30 C23.2846667,30 30,23.284 30,15 C30,6.716 23.2846667,0 15,0 L15,0 Z M10.8526667,25.55 C11.018,24.482 11.1766667,23.5006667 11.3246667,22.5953333 C8.02133333,20.9393333 5.928,17.606 6.462,13.7533333 C7.19133333,8.52 11.2193333,5.83666667 16.2866667,6.29333333 C16.6706667,5.75 17.0926667,5.228 17.5726667,4.72266667 C18.4273333,3.76666667 19.6986667,3.73666667 19.1266667,4.86933333 C17.9746667,7.05 17.5186667,8.696 16.5293333,11.34 C15.5426667,14.1513333 14.0186667,18.2786667 11.988,25.5253333 C11.8406667,26.1893333 10.8,26.084 10.8526667,25.55 L10.8526667,25.55 Z M23.5466667,15.9406667 C22.888,20.9366667 18.218,23.772 13.5766667,23.282 C13.914,22.1426667 14.0733333,21.6573333 14.4633333,20.7386667 C14.758,20.2086667 15.8613333,19.992 16.7173333,19.628 C18.4573333,19.0026667 19.7933333,17.4493333 20.0453333,15.49 C20.2226667,14.1006667 19.8173333,12.7686667 19.022,11.74 C18.466,11.034 17.9413333,10.606 18.12,9.94333333 C18.3833333,9.04866667 18.5853333,8.38466667 19.0766667,7.26 C22.1273333,8.89933333 24.0286667,12.302 23.5466667,15.9406667 L23.5466667,15.9406667 Z" id="Shape"></path>
            <path d="M9.966,14.2006667 C9.794,15.5373333 10.158,16.8133333 10.8873333,17.8193333 C11.3733333,18.4693333 11.746,18.848 11.9286667,19.1453333 C12.53,15.8906667 12.9633333,14.2066667 13.5413333,12.3173333 C13.8006667,11.528 14.2293333,10.4213333 14.5406667,9.668 C14.17,9.792 13.644,9.93 13.2146667,10.098 C11.5133333,10.736 10.2133333,12.2726667 9.966,14.2006667 L9.966,14.2006667 Z" id="Shape"></path>
            <path d="M129.508667,15.5093333 C129.434667,11.9546667 127.32,9.45466667 123.742667,9.45466667 C120.4,9.45466667 117.799333,11.948 117.799333,15.2653333 C117.799333,18.608 120.266667,21.0753333 124.086667,21.0753333 C126.155333,21.0753333 127.432667,20.5066667 128.448,19.584 C128.73,19.2746667 128.586,19.076 128.398,18.8713333 C128.276667,18.75 127.685333,18.1086667 127.541333,17.9646667 C127.336667,17.744 127.104667,17.7046667 126.834,17.9646667 C126.184667,18.4773333 125.320667,18.8206667 124.06,18.8206667 C122.166,18.8206667 121.024667,17.9306667 120.614667,16.5126667 C120.582,16.4013333 120.636,16.168 120.822,16.168 L128.958,16.168 C129.393333,16.1666667 129.504667,15.9293333 129.508667,15.5093333 L129.508667,15.5093333 Z M126.504667,14.31 L120.82,14.31 C120.82,14.31 120.477333,14.3633333 120.629333,13.9086667 C121.052667,12.486 122.187333,11.6833333 123.769333,11.6833333 C125.475333,11.6833333 126.397333,12.6233333 126.721333,13.9486667 C126.794,14.31 126.504667,14.31 126.504667,14.31 L126.504667,14.31 Z" id="Shape"></path>
            <path d="M117.124667,18.7626667 C116.981333,18.628 116.183333,17.9733333 116.077333,17.8666667 C115.871333,17.7053333 115.602667,17.5893333 115.325333,17.894 C114.698667,18.4313333 114.105333,18.7573333 112.95,18.7573333 C110.960667,18.7573333 109.766667,17.298 109.766667,15.3086667 C109.766667,13.3186667 110.960667,11.8593333 112.95,11.8593333 C113.931333,11.8593333 114.615333,12.1706667 115.190667,12.7453333 C115.522,13.0226667 115.728,13.0313333 115.969333,12.8166667 C116.101333,12.6846667 116.979333,12.0393333 117.088,11.9306667 C117.312,11.698 117.365333,11.5813333 117.124,11.2233333 C116.13,10.212 114.908667,9.498 112.949333,9.498 C109.553333,9.498 107.006,11.9913333 107.006,15.3086667 C107.006,18.6513333 109.552667,21.1186667 112.949333,21.1186667 C114.961333,21.1186667 116.049333,20.49 117.151333,19.496 C117.545333,19.1026667 117.294667,18.906 117.124667,18.7626667 L117.124667,18.7626667 Z" id="Shape"></path>
            <path d="M101.865333,9.454 C100.294667,9.42133333 99.186,9.45733333 98.0986667,10.4373333 L98.098,10.222 C98.098,9.874 97.924,9.69266667 97.4986667,9.69266667 L95.472,9.69266667 C95.472,9.69266667 95.4726667,19.7646667 95.4726667,20.0966667 C95.4726667,20.616 95.6046667,20.8353333 96.1573333,20.8353333 L97.4726667,20.8353333 C98.0366667,20.8353333 98.152,20.638 98.152,20.0633333 L98.152,14.7866667 C98.152,12.9826667 99.2926667,11.9213333 101.044,11.9213333 C102.609333,11.9213333 103.351333,12.85 103.351333,14.442 L103.351333,20.064 C103.351333,20.7606667 103.524667,20.838 104.221333,20.838 C104.449333,20.838 104.830667,20.838 105.185333,20.8373333 C105.882667,20.8373333 106.030667,20.7453333 106.030667,20.048 L106.030667,14.2306667 C106.030667,11.2053333 104.332,9.506 101.865333,9.454 L101.865333,9.454 Z" id="Shape"></path>
            <path d="M91.8153333,10.436 L91.8153333,15.796 C91.8153333,17.7066667 91.0986667,18.7406667 89.3213333,18.7406667 C87.544,18.7406667 86.8273333,17.706 86.8273333,15.796 L86.8273333,10.4286667 C86.8273333,9.86466667 86.6706667,9.694 86.134,9.694 L84.8893333,9.694 C84.2986667,9.694 84.1486667,9.882 84.1486667,10.4366667 L84.1486667,15.8753333 C84.1486667,19.1386667 85.9526667,21.102 89.216,21.102 C92.532,21.102 94.4953333,19.1386667 94.4953333,15.8753333 L94.4953333,9.69333333 L92.652,9.7 C92.0166667,9.7 91.8153333,9.84533333 91.8153333,10.436 L91.8153333,10.436 Z" id="Shape"></path>
            <path d="M65.1106667,9.422 C63.7906667,9.422 62.5726667,9.856 61.59,10.5886667 C61.5926667,7.24133333 61.594,4.302 61.594,4.19733333 C61.594,3.68733333 61.474,3.48666667 60.91,3.48666667 C60.7286667,3.48666667 59.944,3.48133333 59.5793333,3.48133333 C59.0513333,3.48133333 58.9546667,3.622 58.9546667,4.16 L58.9546667,20.8366667 L61.1746667,20.8366667 C61.4726667,20.8366667 61.582,20.658 61.582,20.406 L61.582,20.0426667 C62.5653333,20.778 63.7873333,21.214 65.1093333,21.214 C68.3653333,21.214 71.0046667,18.574 71.0046667,15.318 C71.0066667,12.0613333 68.3666667,9.422 65.1106667,9.422 L65.1106667,9.422 Z M65.0813333,18.796 C63.16,18.796 61.6026667,17.2386667 61.6026667,15.3173333 C61.6026667,13.3953333 63.16,11.8386667 65.0813333,11.8386667 C67.0026667,11.8386667 68.56,13.396 68.56,15.3173333 C68.56,17.2386667 67.0026667,18.796 65.0813333,18.796 L65.0813333,18.796 Z" id="Shape"></path>
            <path d="M53.8133333,9.454 C52.2426667,9.42133333 51.134,9.45733333 50.046,10.4373333 L50.0453333,10.222 C50.0453333,9.874 49.8713333,9.69266667 49.446,9.69266667 L47.42,9.69266667 L47.42,20.0966667 C47.42,20.616 47.552,20.8353333 48.1053333,20.8353333 L49.4213333,20.8353333 C49.9853333,20.8353333 50.1006667,20.638 50.1006667,20.0633333 L50.1006667,14.7866667 C50.1006667,12.9826667 51.2413333,11.9213333 52.9926667,11.9213333 C54.558,11.9213333 55.3006667,12.85 55.3006667,14.442 L55.3006667,20.064 C55.3006667,20.7606667 55.474,20.838 56.1706667,20.838 C56.6846667,20.838 57.98,20.836 57.98,20.836 L57.98,14.23 C57.9786667,11.2053333 56.28,9.506 53.8133333,9.454 L53.8133333,9.454 Z" id="Shape"></path>
            <path d="M43.7633333,10.424 L43.7633333,15.796 C43.6486667,17.7066667 43.0466667,18.7406667 41.27,18.7406667 C39.492,18.7406667 38.888,17.706 38.776,15.796 L38.776,10.436 C38.776,9.95866667 38.6833333,9.69333333 38.1946667,9.69333333 L36.7266667,9.69333333 C36.238,9.69333333 36.1033333,9.91 36.1033333,10.4113333 C36.1033333,10.6213333 36.096,15.8746667 36.096,15.8746667 C36.096,19.138 37.9,21.1013333 41.1633333,21.1013333 C44.4793333,21.1013333 46.4426667,19.138 46.4426667,15.8746667 L46.4426667,9.69333333 L44.3813333,9.69333333 C43.9413333,9.69333333 43.7633333,9.91 43.7633333,10.424 L43.7633333,10.424 Z" id="Shape"></path>
            <path d="M81.832,19.494 C80.6746667,20.5653333 79.26,21.1013333 77.5666667,21.1013333 C75.8733333,21.1013333 74.4586667,20.5653333 73.3013333,19.494 C72.144,18.4006667 71.5646667,17.0293333 71.5646667,15.3786667 C71.5646667,13.728 72.1433333,12.3566667 73.3013333,11.2846667 C74.4586667,10.1913333 75.8733333,9.656 77.5666667,9.656 C79.26,9.656 80.6746667,10.192 81.832,11.2846667 C83.0113333,12.378 83.5893333,13.7286667 83.5893333,15.3786667 C83.5893333,17.0293333 83.0113333,18.4006667 81.832,19.494 L81.832,19.494 Z M75.252,17.8433333 C75.8733333,18.4646667 76.6453333,18.7866667 77.5666667,18.7866667 C78.488,18.7866667 79.26,18.4653333 79.8813333,17.8433333 C80.5026667,17.2 80.8246667,16.386 80.8246667,15.3786667 C80.8246667,14.3926667 80.5033333,13.578 79.86,12.9353333 C79.2386667,12.292 78.4666667,11.9706667 77.5666667,11.9706667 C76.6666667,11.9706667 75.8946667,12.292 75.2733333,12.9353333 C74.652,13.5786667 74.33,14.3926667 74.33,15.3786667 C74.3306667,16.386 74.6306667,17.2006667 75.252,17.8433333 L75.252,17.8433333 Z" id="Shape"></path>
        </g>
    </g>
</svg>