<svg id="Zozi" xmlns="http://www.w3.org/2000/svg" xmlns:xlink="http://www.w3.org/1999/xlink" viewBox="0 0 400 300"><defs><style>.cls-1{fill:#f58220;}.cls-2{fill:#fff;}.cls-3{fill:#002c45;}.cls-4{fill:#3f3a60;}.cls-5{opacity:0.7;}.cls-6{fill:#475758;}</style><symbol id="brand-logo-block" data-name="brand-logo-block" viewBox="0 0 30 30"><path class="cls-1" d="M30,27.91A2.09,2.09,0,0,1,27.91,30H2.09A2.09,2.09,0,0,1,0,27.91V2.09A2.09,2.09,0,0,1,2.09,0H27.91A2.09,2.09,0,0,1,30,2.09V27.91Z"/><polygon class="cls-2" points="5 12 5 18 26.49 18 13 12 13 15.95 5 12"/></symbol><symbol id="brand-logo-white" data-name="brand-logo-white" viewBox="0 0 48.54 15.35"><path class="cls-2" d="M6,11.29h5.39v3.65H0V14.17L5.72,3.78H0.37V0.39H11.55V1.16Z"/><path class="cls-2" d="M18.76,15.35c-3.54,0-6.09-2.05-6.09-5.2v-5C12.67,2,15.22,0,18.76,0s6.07,2,6.07,5.18v5C24.83,13.3,22.27,15.35,18.76,15.35ZM20.18,4.94a1.32,1.32,0,0,0-1.42-1.44,1.33,1.33,0,0,0-1.44,1.44v5.5a1.32,1.32,0,0,0,1.44,1.42,1.32,1.32,0,0,0,1.42-1.42V4.94Z"/><path class="cls-2" d="M31.73,11.29h5.39v3.65H25.75V14.17L31.47,3.78H26.12V0.39H37.3V1.16Z"/><path class="cls-2" d="M39.17,14.94V0.39h4.56V14.94H39.17Z"/><path class="cls-2" d="M48.54,2A1.66,1.66,0,1,1,46.88.39,1.62,1.62,0,0,1,48.54,2ZM45.63,2a1.25,1.25,0,0,0,1.26,1.29A1.24,1.24,0,0,0,48.12,2,1.25,1.25,0,1,0,45.63,2Zm1,0.85H46.25V1.23a3.24,3.24,0,0,1,.62,0,1,1,0,0,1,.56.12,0.45,0.45,0,0,1,.16.35,0.41,0.41,0,0,1-.33.38v0a0.48,0.48,0,0,1,.3.39,1.23,1.23,0,0,0,.12.4h-0.4a1.38,1.38,0,0,1-.13-0.39A0.28,0.28,0,0,0,46.8,2.2H46.63V2.85h0Zm0-.92h0.18c0.21,0,.37-0.07.37-0.24s-0.11-.25-0.34-0.25l-0.21,0V1.93Z"/></symbol></defs><title>contour</title><rect class="cls-3" width="400" height="300"/><use id="brand-logo-block-3" data-name="brand-logo-block" width="30" height="30" transform="translate(113.5 120) scale(2)" xlink:href="#brand-logo-block"/><use width="48.54" height="15.35" transform="translate(188.96 134.65) scale(2)" xlink:href="#brand-logo-white"/><rect class="cls-4" width="400" height="300"/><g class="cls-5"><path class="cls-2" d="M127.25,175.13c0,1.25-.08,1.25-6.35,1.25V121.7c0-2.9,1.25-2.9,6.35-2.9v56.33Z"/><path class="cls-2" d="M146,136.43c8.15,0,12.14,4.23,12.14,20.21,0,14.49-4.54,20.52-12.93,20.52-8,0-12.3-2.74-12.3-20.37C133,142.46,137.82,136.43,146,136.43Zm-0.63,35.41c3.45,0,5.88-3,5.88-15.2,0-12.53-1.8-14.88-5.48-14.88-3.53,0-6,3-6,15.2C139.86,169.88,141.82,171.84,145.42,171.84Z"/><path class="cls-2" d="M160.3,142.54c0-4.94,0-5.33,1.57-5.33h3.84v-4.78c0-12.06,7.13-13.94,13.08-13.94,4.78,0,7.29,1.25,7.29,3.21a9.35,9.35,0,0,1-.71,3.45,14.1,14.1,0,0,0-5.56-.94c-4.07,0-7.83.94-7.83,7.76v5.25H179c0,5-.08,5.33-1.33,5.33H172v32.59a1.24,1.24,0,0,1-1.33,1.25h-4.94V142.54H160.3Z"/><path class="cls-2" d="M180.67,142.62c0-4.86.08-5.41,1.33-5.41h4V125.31c0-2.19,1.18-2.19,6.27-2.19v14.1h8.15c0,4.94-.08,5.41-1.33,5.41h-6.82V165.5c0,3.37.08,6.27,2.9,6.27a10,10,0,0,0,4.54-1.17,11,11,0,0,1,.47,3.13c0,2.82-3.68,3.45-6.74,3.45-6.66,0-7.44-4.62-7.44-11.67V142.62h-5.33Z"/></g><path class="cls-2" d="M267.06,132.22c-3.29.18-10.94,0.36-20.19,0.36-1.51,0-2-3.2-2-6.49H270A36,36,0,1,0,243.1,186a36.28,36.28,0,0,0,5-.35,1.8,1.8,0,0,1,0-.32C250.51,166.38,260.12,143.17,267.06,132.22Zm-24.21,36.62h-4.13v8.51c0,2.11,0,2.11-6.57,2.11V168.84H217.48a8.22,8.22,0,0,1-2.11-5.76c0-4,10.7-26.27,16.94-31.62a4.56,4.56,0,0,1,2.92-1.14,6.26,6.26,0,0,1,3.49.89v31.54c3.16,0,6-.24,6-0.24a4.27,4.27,0,0,1,.32,1.95C245,166.73,244.47,168.84,242.85,168.84Z"/><path class="cls-2" d="M232.15,162.76l1-23.43c-4.05,4.62-10.3,16.05-12.08,23.43h11.11Z"/><path class="cls-2" d="M279.1,150a35.82,35.82,0,0,0-5-18.31c-8.89,17.82-15.64,34.74-18.21,52A36,36,0,0,0,279.1,150Z"/><rect class="cls-6" width="400" height="300"/><g id="Page-1"><g id="Group-27"><path id="Fill-16" class="cls-2" d="M110,209.46a8.5,8.5,0,0,1,.53-2.91,8,8,0,0,1,1.53-2.6,7.78,7.78,0,0,1,2.46-1.85,7.44,7.44,0,0,1,3.3-.71,7.08,7.08,0,0,1,3.77,1,6.17,6.17,0,0,1,2.38,2.56l-2.88,2a3.42,3.42,0,0,0-.64-1.06,3.62,3.62,0,0,0-.85-0.69,3.27,3.27,0,0,0-.95-0.37,4.67,4.67,0,0,0-.93-0.1,3.34,3.34,0,0,0-1.74.43,3.88,3.88,0,0,0-1.21,1.12,5,5,0,0,0-.72,1.56,6.59,6.59,0,0,0-.24,1.76,6.05,6.05,0,0,0,.29,1.85,5.31,5.31,0,0,0,.8,1.58,3.86,3.86,0,0,0,1.25,1.09,3.35,3.35,0,0,0,1.62.4,3.89,3.89,0,0,0,1.9-.51,3.22,3.22,0,0,0,.82-0.69,3.35,3.35,0,0,0,.59-1l3.09,1.8a4.9,4.9,0,0,1-1.06,1.6,6.63,6.63,0,0,1-1.59,1.19,8.12,8.12,0,0,1-1.89.73,8,8,0,0,1-2,.25,6.69,6.69,0,0,1-3.1-.72,7.9,7.9,0,0,1-2.42-1.91,9,9,0,0,1-1.59-2.7,8.6,8.6,0,0,1-.57-3.07"/><path id="Fill-18" class="cls-2" d="M140.26,209.62a6.34,6.34,0,0,0,.26,1.82,5.17,5.17,0,0,0,.75,1.57,3.71,3.71,0,0,0,1.24,1.1,3.45,3.45,0,0,0,1.7.41,3.3,3.3,0,0,0,1.72-.43,4,4,0,0,0,1.22-1.13,5,5,0,0,0,.73-1.58,6.77,6.77,0,0,0,.24-1.79,6.3,6.3,0,0,0-.26-1.82,5,5,0,0,0-.77-1.56,3.78,3.78,0,0,0-1.24-1.07,3.67,3.67,0,0,0-3.38,0,3.92,3.92,0,0,0-1.23,1.11,5.1,5.1,0,0,0-.74,1.57,6.49,6.49,0,0,0-.25,1.79m3.91,8.23a7,7,0,0,1-3.16-.71,7.93,7.93,0,0,1-2.44-1.86,8.49,8.49,0,0,1-1.58-2.64,8.61,8.61,0,0,1-.56-3.06,8.51,8.51,0,0,1,2.21-5.71,7.89,7.89,0,0,1,2.47-1.8,7.22,7.22,0,0,1,3.12-.68,7,7,0,0,1,3.16.71,7.84,7.84,0,0,1,2.43,1.88,8.41,8.41,0,0,1,1.57,2.65,8.67,8.67,0,0,1,.55,3,8.54,8.54,0,0,1-2.2,5.71,7.9,7.9,0,0,1-2.46,1.82,7.11,7.11,0,0,1-3.12.68"/><path id="Fill-19" class="cls-2" d="M169.33,208.43v9.28h-3.75V201.48h2.93l7.57,9.54v-9.54h3.75v16.24h-3Z"/><path id="Fill-20" class="cls-2" d="M206.75,204.77h-4.94v12.94h-3.75V204.77h-5v-3.3h13.65v3.3Z"/><path id="Fill-21" class="cls-2" d="M222.51,209.62a6.34,6.34,0,0,0,.26,1.82,5.17,5.17,0,0,0,.75,1.57,3.71,3.71,0,0,0,1.24,1.1,3.45,3.45,0,0,0,1.7.41,3.3,3.3,0,0,0,1.72-.43,4,4,0,0,0,1.22-1.13,5,5,0,0,0,.73-1.58,6.77,6.77,0,0,0,.24-1.79,6.3,6.3,0,0,0-.26-1.82,5,5,0,0,0-.77-1.56,3.78,3.78,0,0,0-1.24-1.07,3.67,3.67,0,0,0-3.38,0,3.92,3.92,0,0,0-1.23,1.11,5.1,5.1,0,0,0-.74,1.57,6.49,6.49,0,0,0-.25,1.79m3.91,8.23a7,7,0,0,1-3.16-.71,7.93,7.93,0,0,1-2.44-1.86,8.49,8.49,0,0,1-1.58-2.64,8.61,8.61,0,0,1-.56-3.06,8.51,8.51,0,0,1,2.21-5.71,7.89,7.89,0,0,1,2.47-1.8,7.22,7.22,0,0,1,3.12-.68,7,7,0,0,1,3.16.71,7.84,7.84,0,0,1,2.43,1.88,8.41,8.41,0,0,1,1.57,2.65,8.67,8.67,0,0,1,.55,3,8.54,8.54,0,0,1-2.2,5.71,7.9,7.9,0,0,1-2.46,1.82,7.11,7.11,0,0,1-3.12.68"/><path id="Fill-22" class="cls-2" d="M254.78,214.51a3.12,3.12,0,0,0,1.63-.4,3.2,3.2,0,0,0,1.07-1.07,4.55,4.55,0,0,0,.59-1.52,9,9,0,0,0,.17-1.75v-8.3H262v8.3a11.4,11.4,0,0,1-.42,3.16,7.26,7.26,0,0,1-1.31,2.56,6.09,6.09,0,0,1-2.24,1.73,7.62,7.62,0,0,1-3.24.63,7.52,7.52,0,0,1-3.31-.66,6.16,6.16,0,0,1-2.23-1.77,7.26,7.26,0,0,1-1.26-2.57,11.53,11.53,0,0,1-.4-3.07v-8.3h3.75v8.3a8.58,8.58,0,0,0,.18,1.79,4.74,4.74,0,0,0,.6,1.51,2.92,2.92,0,0,0,2.67,1.44"/><path id="Fill-23" class="cls-2" d="M280.05,209.21h3.43a1.41,1.41,0,0,0,1.14-.63,2.59,2.59,0,0,0,.48-1.61,2.27,2.27,0,0,0-.55-1.6,1.6,1.6,0,0,0-1.19-.59h-3.31v4.44Zm-3.75,8.51V201.48h7.32a4.7,4.7,0,0,1,2.12.48,5.65,5.65,0,0,1,1.68,1.26,5.87,5.87,0,0,1,1.11,1.76,5.21,5.21,0,0,1,.4,2,5.79,5.79,0,0,1-.18,1.45,5.71,5.71,0,0,1-.53,1.31,4.83,4.83,0,0,1-.83,1.11,5,5,0,0,1-1.11.83l3.73,6h-4.23l-3.27-5.24h-2.45v5.24H276.3Z"/><path id="Fill-24" class="cls-2" d="M236.72,135.53l8.08-5.1-8.08-5v10.11Z"/><path id="Fill-25" class="cls-2" d="M192.6,143.79L203,133.34l4.51,6.73,5.9-22.34-22.35,5.9,6.73,4.51-10.45,10.45Z"/><path id="Fill-26" class="cls-2" d="M203.75,169.73l-4.54,7.39-4.82-7.61a39.36,39.36,0,0,1-33.1-34l-7.61-4.8,7.6-4.7a39.56,39.56,0,0,1,33-34.28L199.1,84l4.67,7.29a40.41,40.41,0,0,1,33,24.15h8.05a47,47,0,0,0-91.43,15.23,46.88,46.88,0,0,0,91.27,15h-8.08a39.26,39.26,0,0,1-32.88,24.15"/></g></g></svg>