<svg id="Zozi" xmlns="http://www.w3.org/2000/svg" xmlns:xlink="http://www.w3.org/1999/xlink" viewBox="0 0 400 300"><defs><style>.cls-1{fill:#f58220;}.cls-2{fill:#fff;}.cls-3{fill:#002c45;}</style><symbol id="brand-logo-block" data-name="brand-logo-block" viewBox="0 0 30 30"><path class="cls-1" d="M30,27.91A2.09,2.09,0,0,1,27.91,30H2.09A2.09,2.09,0,0,1,0,27.91V2.09A2.09,2.09,0,0,1,2.09,0H27.91A2.09,2.09,0,0,1,30,2.09V27.91Z"/><polygon class="cls-2" points="5 12 5 18 26.49 18 13 12 13 15.95 5 12"/></symbol><symbol id="brand-logo-white" data-name="brand-logo-white" viewBox="0 0 48.54 15.35"><path class="cls-2" d="M6,11.29h5.39v3.65H0V14.17L5.72,3.78H0.37V0.39H11.55V1.16Z"/><path class="cls-2" d="M18.76,15.35c-3.54,0-6.09-2.05-6.09-5.2v-5C12.67,2,15.22,0,18.76,0s6.07,2,6.07,5.18v5C24.83,13.3,22.27,15.35,18.76,15.35ZM20.18,4.94a1.32,1.32,0,0,0-1.42-1.44,1.33,1.33,0,0,0-1.44,1.44v5.5a1.32,1.32,0,0,0,1.44,1.42,1.32,1.32,0,0,0,1.42-1.42V4.94Z"/><path class="cls-2" d="M31.73,11.29h5.39v3.65H25.75V14.17L31.47,3.78H26.12V0.39H37.3V1.16Z"/><path class="cls-2" d="M39.17,14.94V0.39h4.56V14.94H39.17Z"/><path class="cls-2" d="M48.54,2A1.66,1.66,0,1,1,46.88.39,1.62,1.62,0,0,1,48.54,2ZM45.63,2a1.25,1.25,0,0,0,1.26,1.29A1.24,1.24,0,0,0,48.12,2,1.25,1.25,0,1,0,45.63,2Zm1,0.85H46.25V1.23a3.24,3.24,0,0,1,.62,0,1,1,0,0,1,.56.12,0.45,0.45,0,0,1,.16.35,0.41,0.41,0,0,1-.33.38v0a0.48,0.48,0,0,1,.3.39,1.23,1.23,0,0,0,.12.4h-0.4a1.38,1.38,0,0,1-.13-0.39A0.28,0.28,0,0,0,46.8,2.2H46.63V2.85h0Zm0-.92h0.18c0.21,0,.37-0.07.37-0.24s-0.11-.25-0.34-0.25l-0.21,0V1.93Z"/></symbol></defs><title>zozi</title><rect class="cls-3" width="400" height="300"/><use id="brand-logo-block-3" data-name="brand-logo-block" width="30" height="30" transform="translate(113.5 120) scale(2)" xlink:href="#brand-logo-block"/><use width="48.54" height="15.35" transform="translate(188.96 134.65) scale(2)" xlink:href="#brand-logo-white"/></svg>