<svg id="Layer_1" data-name="Layer 1" xmlns="http://www.w3.org/2000/svg" viewBox="0 0 400 300"><defs><style>.cls-1{fill:#a85cc4;}.cls-2{fill:#fff;}</style></defs><title>Untitled-2</title><rect class="cls-1" width="400" height="300"/><polygon class="cls-2" points="80 170.84 93.02 131.88 98.45 131.88 85.43 170.84 80 170.84"/><polygon class="cls-2" points="90.79 170.84 103.81 131.88 109.23 131.88 96.22 170.84 90.79 170.84"/><polygon class="cls-2" points="101.82 170.84 114.84 131.88 120.27 131.88 107.25 170.84 101.82 170.84"/><path class="cls-2" d="M152,150.63h15.56v1.24a25.7,25.7,0,0,1-1,7.51,16,16,0,0,1-3.29,5.66,17.06,17.06,0,0,1-13.34,5.9,18.34,18.34,0,0,1-13.53-5.71,19.61,19.61,0,0,1,14-33.38,19.17,19.17,0,0,1,8.24,1.8,23.71,23.71,0,0,1,7.19,5.84l-4,3.88q-4.63-6.17-11.29-6.17a13.49,13.49,0,0,0-10,4.12,13.76,13.76,0,0,0-4,10.14,14.15,14.15,0,0,0,13.66,14.14,11.37,11.37,0,0,0,7.53-2.82,10,10,0,0,0,3.73-6.81H152v-5.34Z"/><path class="cls-2" d="M169.51,158.19a11.8,11.8,0,0,1,3.68-8.75,13,13,0,0,1,18,0,12.72,12.72,0,0,1,0,17.87,12.59,12.59,0,0,1-9.1,3.58,12.07,12.07,0,0,1-8.95-3.66A12.3,12.3,0,0,1,169.51,158.19Zm5.61,0.1a8,8,0,0,0,1.9,5.63,7.39,7.39,0,0,0,10.29,0,8.92,8.92,0,0,0,0-11.07,7.3,7.3,0,0,0-10.24,0A7.63,7.63,0,0,0,175.12,158.29Z"/><path class="cls-2" d="M196.53,158.19a11.8,11.8,0,0,1,3.68-8.75,13,13,0,0,1,18,0,12.72,12.72,0,0,1,0,17.87,12.59,12.59,0,0,1-9.1,3.58,12.07,12.07,0,0,1-8.95-3.66A12.3,12.3,0,0,1,196.53,158.19Zm5.61,0.1a8,8,0,0,0,1.9,5.63,7.39,7.39,0,0,0,10.29,0,8.91,8.91,0,0,0,0-11.07,7.3,7.3,0,0,0-10.24,0A7.63,7.63,0,0,0,202.14,158.29Z"/><path class="cls-2" d="M243.18,129.05h5.51v41.19h-5.51v-2.49a10.24,10.24,0,0,1-7.34,3.17,10.45,10.45,0,0,1-8.1-3.56,13.24,13.24,0,0,1-3.19-9.07,12.8,12.8,0,0,1,3.19-8.88,10.26,10.26,0,0,1,15.44-.17V129.05Zm-13,29.24a8.27,8.27,0,0,0,1.83,5.56,6,6,0,0,0,4.73,2.17,6.3,6.3,0,0,0,4.93-2.1,9,9,0,0,0,0-11,6.21,6.21,0,0,0-4.88-2.12,6.07,6.07,0,0,0-4.73,2.15A7.91,7.91,0,0,0,230.16,158.29Z"/><path class="cls-2" d="M258.11,129.05v20.19a10.12,10.12,0,0,1,7.46-3.41,10.27,10.27,0,0,1,8,3.58,12.8,12.8,0,0,1,3.19,8.88,13.07,13.07,0,0,1-3.22,9.07,10.38,10.38,0,0,1-8.07,3.56,10.26,10.26,0,0,1-7.36-3.17v2.49h-5.49V129.05h5.49Zm13,29.48A8.2,8.2,0,0,0,269.3,153a5.94,5.94,0,0,0-4.71-2.19,6.31,6.31,0,0,0-4.93,2.12,7.88,7.88,0,0,0-1.88,5.46,8,8,0,0,0,1.85,5.54,6.16,6.16,0,0,0,4.88,2.12,6,6,0,0,0,4.73-2.12A7.79,7.79,0,0,0,271.15,158.53Z"/><path class="cls-2" d="M278.74,136.61a3.58,3.58,0,0,1,3.56-3.54,3.46,3.46,0,0,1,2.54,1,3.38,3.38,0,0,1,1,2.51,3.45,3.45,0,0,1-1,2.54,3.37,3.37,0,0,1-2.51,1A3.58,3.58,0,0,1,278.74,136.61Zm6.32,9.88v23.75h-5.49V146.49h5.49Z"/><path class="cls-2" d="M297.66,151.61v18.63h-5.49V151.61h-2.34v-5.12h2.34v-8.71h5.49v8.71h4.27v5.12h-4.27Z"/><path class="cls-2" d="M318.46,150.54L313.93,153q-1.07-2.17-2.66-2.17a1.83,1.83,0,0,0-1.29.5,1.67,1.67,0,0,0-.54,1.28q0,1.36,3.17,2.7a18.91,18.91,0,0,1,5.88,3.46A5.92,5.92,0,0,1,320,163a7.46,7.46,0,0,1-2.54,5.75,8.64,8.64,0,0,1-5.95,2.19q-6,0-8.46-5.83l4.68-2.17a10.19,10.19,0,0,0,1.49,2.17,3.39,3.39,0,0,0,2.39.93q2.78,0,2.78-2.54,0-1.46-2.15-2.73l-1.66-.8-1.68-.8a10.28,10.28,0,0,1-3.36-2.34A5.76,5.76,0,0,1,304.3,153a6.78,6.78,0,0,1,2.12-5.12,7.44,7.44,0,0,1,5.27-2Q316.24,145.83,318.46,150.54Z"/></svg>