<svg id="Layer_2" data-name="Layer 2" xmlns="http://www.w3.org/2000/svg" viewBox="0 0 400 300"><defs><style>.cls-1{fill:#4a8cd5;}.cls-2{fill:#fdfdfe;}.cls-3{fill:#fff;}.cls-4{fill:#c8ebf7;}</style></defs><title>retargetlinks</title><rect class="cls-1" width="400" height="300"/><path class="cls-2" d="M50.43,147.88c-0.39-9.94,7.8-19.08,18.21-19.94a20.46,20.46,0,0,1,11.92,2.86c0.92,0.51,1,1,.22,1.77-1.15,1.11-2.33,2.19-3.47,3.31a1.17,1.17,0,0,1-1.46.23,12.78,12.78,0,0,0-12.89,1,12.37,12.37,0,0,0-5.53,9.41,12.71,12.71,0,0,0,.93,6.45,1.44,1.44,0,0,1-.37,1.85c-1.12,1-2.18,2.17-3.27,3.25-0.68.67-1.17,0.6-1.64-.23A20.42,20.42,0,0,1,50.43,147.88Z"/><path class="cls-2" d="M90.2,146.8c0,10.64-5.59,18.39-14.08,21a19.51,19.51,0,0,1-16.18-2,0.9,0.9,0,0,1-.14-1.62c1.14-1.12,2.32-2.2,3.44-3.33a1.27,1.27,0,0,1,1.62-.26,13,13,0,0,0,18.34-13.61,13.61,13.61,0,0,0-1-3.56,1.2,1.2,0,0,1,.28-1.54c1.15-1.11,2.26-2.26,3.4-3.38,0.72-.71,1.21-0.63,1.7.25A19.3,19.3,0,0,1,90.2,146.8Z"/><path class="cls-2" d="M70.26,155a6.52,6.52,0,1,1,6.54-6.45A6.47,6.47,0,0,1,70.26,155Z"/><path class="cls-2" d="M53.58,168.61A4,4,0,0,1,50,165.09a2.1,2.1,0,0,1,.64-1.72q4.84-4.88,9.67-9.77a2.26,2.26,0,0,1,2.14-.66,4.07,4.07,0,0,1,3.16,3.42,2,2,0,0,1-.53,1.67l-10,10.08A1.9,1.9,0,0,1,53.58,168.61Z"/><path class="cls-2" d="M78.78,143.77a4,4,0,0,1-3.71-3.7,2.31,2.31,0,0,1,.77-1.67q4.69-4.71,9.36-9.44a2.46,2.46,0,0,1,3.35-.47,4.11,4.11,0,0,1,1.94,2.18,2.41,2.41,0,0,1-.57,2.81c-3.2,3.2-6.37,6.42-9.55,9.63A2,2,0,0,1,78.78,143.77Z"/><path class="cls-3" d="M117.31,150.18v12.33h-5.9V134h9c6.23,0,9.16,2.89,9.16,7.77a6.57,6.57,0,0,1-5.45,6.35c2.32,0.61,3.17,2,4.4,4.84l4,9.52H126.5l-3.95-9.12c-1.14-2.65-2.12-3.22-4.76-3.22h-0.49Zm0-11.52v6.88h2.56a3.39,3.39,0,0,0,3.46-3.66c0-2.12-1.1-3.22-3.05-3.22h-3Z"/><path class="cls-3" d="M142.42,162.8c-6.27,0-9.57-3.22-9.57-10.34s3.22-10.66,9.08-10.66c4.68,0,8.06,2.85,8.06,9a28.41,28.41,0,0,1-.16,3.13H138.06c0,3.34,2,4.68,4.8,4.68a22.13,22.13,0,0,0,5.82-1l0.9,3.62A18.1,18.1,0,0,1,142.42,162.8Zm2.48-12.86c0-2.32-.94-4.15-3.38-4.15s-3.46,2.16-3.5,4.44h6.88v-0.28Z"/><path class="cls-3" d="M153.78,146.68H151.7v-4.48h2.12v-5.82h5.25v5.82h4.27v4.48H159v8.87c0,2,.61,2.73,1.67,2.73a8,8,0,0,0,2-.24l0.85,4.23a11.57,11.57,0,0,1-3.42.53c-3,0-6.35-1-6.35-4.64V146.68Z"/><path class="cls-3" d="M176.74,160.52c-1.83,1.67-3.05,2.32-5.17,2.32a6.4,6.4,0,0,1-6.47-6.55c0-4,3-6.55,9.48-6.55h1.67c0-2.2-1-3.87-3.38-3.87a27.65,27.65,0,0,0-6,.81L166,143.1a27.14,27.14,0,0,1,8.1-1.3c5.45,0,7.41,2.73,7.41,6.92v13.84h-3.91Zm-2.32-6.88c-3.22,0-3.91.94-3.91,2.44a2.32,2.32,0,0,0,2.2,2.56c1.1,0,2-.65,3.46-2.2v-2.81h-1.75Z"/><path class="cls-3" d="M191.15,162.56h-5.33V142.21h4.23l0.49,2c2-1.63,3.26-2.4,5.17-2.4a6.21,6.21,0,0,1,1.79.24L197,146.89a7.26,7.26,0,0,0-2-.24c-1.42,0-2.81,1.22-3.87,2.4v13.51Z"/><path class="cls-3" d="M211.37,160.2c-2.65,2-4.31,2.61-6,2.61-3.95,0-6.68-3.38-6.68-10.26,0-7.37,3.26-10.75,7.45-10.75a7.67,7.67,0,0,1,4.88,2.08l0.77-1.67h4.52V163.9c0,7.2-6.06,8.22-8.79,8.22a20.16,20.16,0,0,1-8-1.42l0.77-3.74a19,19,0,0,0,6.11,1c2,0,5-.24,5-3.79V160.2Zm-0.37-12a6.61,6.61,0,0,0-3.79-1.79c-1.91,0-3.26,1.87-3.26,6,0,3.83,1.18,5.7,3.09,5.7a6.83,6.83,0,0,0,3.95-1.79v-8.1Z"/><path class="cls-3" d="M229.29,162.8c-6.27,0-9.57-3.22-9.57-10.34s3.22-10.66,9.08-10.66c4.68,0,8.06,2.85,8.06,9a28.41,28.41,0,0,1-.16,3.13H224.93c0,3.34,2,4.68,4.8,4.68a22.13,22.13,0,0,0,5.82-1l0.9,3.62A18.1,18.1,0,0,1,229.29,162.8Zm2.48-12.86c0-2.32-.94-4.15-3.38-4.15s-3.46,2.16-3.5,4.44h6.88v-0.28Z"/><path class="cls-3" d="M240.65,146.68h-2.08v-4.48h2.12v-5.82h5.25v5.82h4.27v4.48H245.9v8.87c0,2,.61,2.73,1.67,2.73a8,8,0,0,0,2-.24l0.85,4.23a11.57,11.57,0,0,1-3.42.53c-3,0-6.35-1-6.35-4.64V146.68Z"/><path class="cls-4" d="M264.7,162.56V134.07h5.9v23.81h11v4.68H264.7Z"/><path class="cls-4" d="M283.43,139.15v-5.09h5.29v5.09h-5.29Zm0,23.4V142.21h5.29v20.35h-5.29Z"/><path class="cls-4" d="M305.23,162.56V150.39c0-2.08-.77-3.74-2.65-3.74a6.53,6.53,0,0,0-3.91,1.87v14h-5.33V142.21h4.48l0.86,1.83c2.4-1.79,3.83-2.24,6-2.24,3.5,0,5.9,2.28,5.9,7.16v13.59h-5.37Z"/><path class="cls-4" d="M320.61,134.07v15.51l6.35-7.37h6l-7.45,8.3,8.1,12h-5.74l-5.49-8.79-1.75,2v6.76h-5.29V134.07h5.29Z"/><path class="cls-4" d="M344.75,156.41c0-4.11-9.28-1.83-9.28-8.43,0-3.95,2.56-6.19,7-6.19a16.8,16.8,0,0,1,6.19,1.14l-0.85,4.23a15.83,15.83,0,0,0-5.25-1.1c-1.38,0-1.79.45-1.79,1.22,0,2.89,9.28,1.34,9.28,8.55,0,4.27-3,7-8.14,7a14.7,14.7,0,0,1-6.72-1.75l1.14-3.91a13.89,13.89,0,0,0,5.41,1.38C343.57,158.53,344.75,157.8,344.75,156.41Z"/></svg>