<svg xmlns="http://www.w3.org/2000/svg" xmlns:xlink="http://www.w3.org/1999/xlink" version="1.1" x="0px" y="0px" viewBox="0 0 72.7 72.7" enable-background="new 0 0 72.7 72.7" xml:space="preserve"><style>.style0{fill:	#FFFFFF;}</style><g><path d="M36.3 0C16.3 0 0 16.3 0 36.3c0 20.1 16.3 36.3 36.3 36.3s36.3-16.3 36.3-36.3C72.7 16.3 56.4 0 36.3 0z M36.3 71.2c-19.2 0-34.8-15.6-34.8-34.8S17.1 1.5 36.3 1.5s34.8 15.6 34.8 34.8S55.6 71.2 36.3 71.2z" class="style0"/></g><g><path d="M38 28.1L46.5 16h-20l7.8 12.1v2L21.5 52.2l3.1 4.4H48l3.1-4.4L38 30.1V28.1z M41 18.2 c0.3 0 0.5 0.2 0.5 0.5c0 0.3-0.2 0.5-0.5 0.5c-0.3 0-0.5-0.2-0.5-0.5C40.4 18.4 40.7 18.2 41 18.2z M39.4 20.7 c0.3 0 0.5 0.2 0.5 0.5c0 0.3-0.2 0.5-0.5 0.5c-0.3 0-0.5-0.2-0.5-0.5C38.9 20.9 39.1 20.7 39.4 20.7z M38 18.2 c0.3 0 0.5 0.2 0.5 0.5c0 0.3-0.2 0.5-0.5 0.5c-0.3 0-0.5-0.2-0.5-0.5C37.4 18.4 37.7 18.2 38 18.2z M37.8 23.2 c0.3 0 0.5 0.2 0.5 0.5c0 0.3-0.2 0.5-0.5 0.5c-0.3 0-0.5-0.2-0.5-0.5C37.3 23.4 37.5 23.2 37.8 23.2z M36.2 20.7 c0.3 0 0.5 0.2 0.5 0.5c0 0.3-0.2 0.5-0.5 0.5c-0.3 0-0.5-0.2-0.5-0.5C35.7 20.9 36 20.7 36.2 20.7z M36.2 25.7 c0.3 0 0.5 0.2 0.5 0.5c0 0.3-0.2 0.5-0.5 0.5c-0.3 0-0.5-0.2-0.5-0.5C35.7 26 36 25.7 36.2 25.7z M31.5 19.2 c-0.3 0-0.5-0.2-0.5-0.5c0-0.3 0.2-0.5 0.5-0.5c0.3 0 0.5 0.2 0.5 0.5C32.1 19 31.8 19.2 31.5 19.2z M33.1 21.7 c-0.3 0-0.5-0.2-0.5-0.5c0-0.3 0.2-0.5 0.5-0.5c0.3 0 0.5 0.2 0.5 0.5C33.6 21.5 33.4 21.7 33.1 21.7z M34 18.7 c0-0.3 0.2-0.5 0.5-0.5c0.3 0 0.5 0.2 0.5 0.5c0 0.3-0.2 0.5-0.5 0.5C34.2 19.2 34 19 34 18.7z M34.1 23.7c0-0.3 0.2-0.5 0.5-0.5 c0.3 0 0.5 0.2 0.5 0.5c0 0.3-0.2 0.5-0.5 0.5C34.4 24.3 34.1 24 34.1 23.7z M44.9 48.2l2.2 3.7l-2 2.2H27.6l-1.9-2.2l2.2-3.7H44.9 z" class="style0"/><path d="M36.3 3C17.9 3 3 17.9 3 36.3c0 18.4 14.9 33.3 33.3 33.3s33.3-14.9 33.3-33.3C69.7 17.9 54.7 3 36.3 3z M48.8 58.1h-25l-4.1-5.8l13.1-22.6v-1.1l-9.1-14h25.6l-9.8 14v1.1l13.4 22.6L48.8 58.1z" class="style0"/></g></svg>